<?xml version="1.0" encoding="utf-8"?>
<!-- Generator: Adobe Illustrator 23.0.1, SVG Export Plug-In . SVG Version: 6.00 Build 0)  -->
<svg version="1.1" id="Layer_1" xmlns="http://www.w3.org/2000/svg" xmlns:xlink="http://www.w3.org/1999/xlink" x="0px" y="0px"
	 viewBox="0 0 2079.3 956.4" style="enable-background:new 0 0 2079.3 956.4;" xml:space="preserve">
<style type="text/css">
	.st0{fill:#FFFFFF;}
</style>
<rect width="2079.3" height="956.4"/>
<g id="layer101">
	<path class="st0" d="M236,613.3v-110h251h251v8.5v8.5h-28.5H681v63v63h-8.5H664v-63v-63H458.5H253v93v93h781.5H1816v-223v-223
		h-86.5H1643v21v21h28h28v8.5v8.5h-28h-28v25v25h49.5h49.5v8.5v8.5h-58.5H1625v-71v-71h104.5H1834v239.5v239.5h-799H236V613.3z"/>
	<path class="st0" d="M798,574.3v-71h9h9v28v28h41.5H899v-28v-28h9h9v71v71h-9h-9v-34.5v-34.5h-41.5H816v34.5v34.5h-9h-9V574.3z"/>
	<path class="st0" d="M1008,574.3v-71h42.9c33.8,0,44.6,0.3,50.7,1.5c14,2.7,23.6,9.5,28.7,20.5c2.9,6,3.1,7.3,3.1,17.5
		c0,9-0.4,12-2.2,16.5c-4.1,10.4-14.6,19.7-26,23.1c-4,1.1-4.1,1.3-2.9,3.3c0.8,1.2,3.1,5.3,5.2,9.1c2.1,3.9,4.1,7.5,4.5,8
		c0.5,0.6,2,3.3,3.6,6c1.5,2.8,3.5,6.4,4.4,8c5.9,10.3,10.1,17.7,12.9,22.8l3.2,5.7h-10.6c-5.8,0-10.5-0.4-10.5-0.9s-2.5-5-5.5-10
		c-3-5.1-5.5-9.4-5.5-9.6c0-0.2-1.7-3.2-3.7-6.7c-2.1-3.5-4.7-7.9-5.8-9.9s-4.7-8.4-8-14.2l-6-10.7h-26.7H1027v31v31h-9.5h-9.5
		V574.3z M1098.4,565.3c5.7-1.3,11.6-5.8,14.3-11c4.7-8.9,1.9-21.9-5.9-28.3c-6.2-5-11.8-5.7-47.5-5.7H1027v23v23h33.8
		C1079.3,566.3,1096.3,565.8,1098.4,565.3z"/>
	<path class="st0" d="M1215,574.3v-71h56h56v8.5v8.5h-46.5H1234v20.5v20.5h28h28v8.5v8.5h-28h-28v25v25h49.5h49.5v8.5v8.5h-59h-59
		V574.3z"/>
	<path class="st0" d="M1387.3,644.6c0.7-1.3,43.1-87.8,60.2-123l8.9-18.3h7.6h7.5l16.4,33.3c9.1,18.2,24.7,49.8,34.8,70
		c10.1,20.3,18.3,37.3,18.3,37.8s-4.4,0.9-9.7,0.9h-9.8l-9.5-19l-9.5-19H1464h-38.5l-9.3,19l-9.2,19h-10.1
		C1391.4,645.3,1387.1,645,1387.3,644.6z M1493.8,589.6c-3.8-8.3-29.4-59.3-29.8-59.3c-0.5,0-27.1,53.1-29.2,58.3
		c-0.7,1.6,1.1,1.7,29.3,1.7C1480.6,590.3,1494,590,1493.8,589.6z"/>
	<path class="st0" d="M1612,574.4v-71.1h33.3c34.4,0,45.7,0.9,56.2,4.5c22.6,7.7,38.4,25.2,44.1,48.5c2.2,9,1.8,31.1-0.7,40
		c-5,18-17.4,33.3-33.2,40.9c-14.7,7.1-17.3,7.4-60.9,7.9l-38.8,0.3V574.4z M1690.6,626.3c17.7-4.5,30.2-16.2,35.5-33
		c2.4-7.6,3-26.6,1-34c-3.8-14.1-14.1-26.7-26.6-32.7c-10.7-5.1-19.2-6.2-46.2-6.3H1631v54v54h25.8
		C1679.5,628.3,1683.7,628,1690.6,626.3z"/>
	<path class="st0" d="M923.5,388.7c-12.4-2-23.4-5.5-33.8-10.8c-9.6-5-19.7-11.6-19.7-13c0-0.7,8-13.6,9.6-15.5
		c0.2-0.2,3.7,2,7.9,4.8c9.1,6.3,21.6,12.2,33.3,15.8c7.5,2.2,10.6,2.6,22.7,2.6c13.5,0,14.3-0.1,22.3-3.2
		C979.4,364,987,355,987,344.1c0-13.9-11.8-22.5-34-24.7c-6-0.6-16.1-1.6-22.2-2.2c-30.8-3-43.8-8.5-51.6-21.7
		c-2.5-4.3-2.7-5.6-2.7-15.2s0.2-10.9,2.7-15c6-10.3,18.1-18.7,31.8-22.1c8.2-2.1,33.5-1.8,42.8,0.4c8.9,2.1,18.3,5.3,23.7,7.9
		c6.4,3.2,19.4,11,20.5,12.3c0.7,0.8-0.5,3.3-4,8.3c-2.8,4-5.2,7.2-5.5,7.2c-0.2,0-4.2-2.4-8.7-5.3c-14.3-9.2-24.9-13.1-39.4-14.8
		c-24.9-2.7-45.4,6.5-45.4,20.6c0,12.1,10.9,17.6,39.5,20c33,2.8,38.3,3.9,49.5,9.5c29.3,14.8,30.2,52.3,1.7,70.4
		C971,389.1,947.7,392.4,923.5,388.7z"/>
	<path class="st0" d="M236,315.3v-71h8.5h8.5v71v71h-8.5H236V315.3z"/>
	<path class="st0" d="M351,315.3v-71h5.1c2.8,0,5.6,0.6,6.2,1.3c0.7,0.7,3.9,4.4,7.2,8.2c3.3,3.9,6.4,7.5,7,8.1
		c0.5,0.6,4.8,5.5,9.5,10.9c4.7,5.5,10.7,12.4,13.4,15.4c6.2,7.1,8.7,10,16.1,18.6c3.3,3.9,6.2,7.2,6.5,7.5c0.3,0.3,3.2,3.7,6.5,7.5
		c3.3,3.9,6.2,7.2,6.5,7.5c0.3,0.3,3.2,3.6,6.5,7.5c3.3,3.8,7,8.1,8.3,9.5l2.2,2.5v-52.3v-52.2h9.5h9.5v71v71h-5.3
		c-5.3,0-5.4-0.1-9.8-5.4c-3.8-4.6-19.2-22.3-29.3-33.6c-1.7-2-5.8-6.7-9.1-10.5c-3.3-3.9-6.2-7.2-6.5-7.5c-0.3-0.3-3.2-3.6-6.5-7.5
		c-3.3-3.8-6.2-7.2-6.5-7.5c-0.3-0.3-3.2-3.6-6.5-7.5c-6.1-7.1-8.1-9.4-17.4-19.8l-5.1-5.7v52.5v52.5h-9h-9V315.3z"/>
	<path class="st0" d="M606.8,374.6c-13.1-27.1-23.4-48.6-29.5-61.3c-3.6-7.4-9.1-18.9-12.3-25.5s-9.1-18.7-13-27
		c-4-8.2-7.4-15.4-7.7-15.8c-0.3-0.4,4.2-0.6,9.8-0.5l10.3,0.3l1.8,3.5c1.6,3.2,12.1,25.1,24.8,51.5c5.2,10.8,20.9,43.4,25.4,52.7
		l2.3,4.7l1.8-4.2c1-2.3,6.1-13,11.3-23.7c5.2-10.7,11.4-23.5,13.7-28.5c2.4-4.9,8.8-18.2,14.2-29.5c5.5-11.3,10.6-22,11.4-23.7
		l1.4-3.3h10.2c5.7,0,10.3,0.2,10.3,0.5c0,0.3-1.1,2.6-2.5,5.3c-2.2,4.2-6.6,13.4-27.5,56.7c-6.2,13-24.8,51.4-33.3,68.7l-5.2,10.8
		h-6h-6L606.8,374.6z"/>
	<path class="st0" d="M773,315.3v-71h8h8v71v71h-8h-8V315.3z"/>
	<path class="st0" d="M1075,315.3v-71h9.5h9.5v71v71h-9.5h-9.5V315.3z"/>
	<path class="st0" d="M1211,315.3v-71h46.3c34.4,0.1,47.7,0.4,52.2,1.4c16.9,3.7,25.2,11.7,27.6,26.8c1.9,11.7-1,23-7.7,29.9
		l-3.5,3.6l2.8,1.8c4.3,2.7,12,11.1,14.2,15.3c2.7,5.3,5.1,15.1,5.1,20.8c0,5.8-2.4,16.3-4.6,20.5c-3.9,7.6-12.7,14.9-22.9,19
		l-6,2.4l-51.7,0.3l-51.8,0.3V315.3z M1315.5,366.6c9-4.8,12.8-11.7,12.7-23.3c0-11.3-4.1-18.7-12.6-23.3c-4-2.1-5-2.2-44.8-2.5
		l-40.8-0.3v26.1v26.1l40.8-0.3C1310.3,368.8,1311.6,368.7,1315.5,366.6z M1309.7,297.6c12.1-6.5,12.7-25.5,1-33.1l-4.2-2.7
		l-38.2-0.3l-38.3-0.3v19.6v19.6l37.8-0.3C1304.7,299.8,1305.6,299.8,1309.7,297.6z"/>
	<path class="st0" d="M1438,315.3v-71h9h9v62.5v62.5h46.5h46.5v8.5v8.5h-55.5H1438V315.3z"/>
</g>
</svg>
