<svg xmlns="http://www.w3.org/2000/svg" viewBox="0 0 2080 957" width="2080" height="957" style="">
	<style>
		tspan { white-space:pre }
		.shp0 { fill: none;stroke: #ff0000;stroke-width: 4.4 } 
	</style>
	<path id="Shape 1" class="shp0 QGpnOTwH_0" d="M256 249C256 249 256 388.2 256 387.74"></path>
	<path id="Shape 2" class="shp0 QGpnOTwH_1" d="M364 380C364.9 380.38 364 250 364 250L470 382L469 250"></path>
	<path id="Shape 3" class="shp0 QGpnOTwH_2" d="M564 252L625 377L688 249"></path>
	<path id="Shape 4" class="shp0 QGpnOTwH_3" d="M788 249C788 249 782.59 376.73 783 377"></path>
	<path id="Shape 5" class="shp0 QGpnOTwH_4" d="M1093 250C1093 250 1095.89 376.04 1093 376.04"></path>
	<path id="Shape 6" class="shp0 QGpnOTwH_5" d="M1226 251C1226 251 1227.22 375.67 1227 376C1226.78 376.33 1329.79 388.66 1338 367C1346.21 345.34 1351.64 332.48 1331 318C1310.36 303.52 1231 308 1231 308C1231 308 1330.14 321.24 1333 288C1335.86 254.76 1336.05 249.49 1311 250C1285.95 250.51 1226 251 1226 251Z"></path>
	<path id="Shape 7" class="shp0 QGpnOTwH_6" d="M1452 250C1452.41 249.79 1453 375 1453 375L1547 377"></path>
	<path id="Shape 8" class="shp0 QGpnOTwH_7" d="M1740 372L1641.98 372L1641.98 249.98L1833 249.98L1833 712L249 712C249 712 248.21 507 249 507C249.79 507 738 507 738 507"></path>
	<path id="Shape 9" class="shp0 QGpnOTwH_8" d="M679 511C679.24 511.62 679 632.02 679 632.02"></path>
	<path id="Shape 10" class="shp0 QGpnOTwH_9" d="M813 511L816 568L813 636"></path>
	<path id="Shape 14" class="shp0 QGpnOTwH_10" d=""></path>
	<path id="Shape 14" class="shp0 QGpnOTwH_11" d="M914 518C914 518 911.54 628.29 912 629"></path>
	<path id="Shape 14" class="shp0 QGpnOTwH_12" d="M1025 630C1025.09 630.23 1022 515 1022 515C1022 515 1140.14 494.57 1132 524C1123.86 553.43 1116.92 582.11 1034 578"></path>
	<path id="Shape 14" class="shp0 QGpnOTwH_13" d="M1098 579L1128 637"></path>
	<path id="Shape 14" class="shp0 QGpnOTwH_14" d="M1327 509L1228 510C1228 510 1228.52 636.34 1229 636C1229.48 635.66 1329.56 635.7 1330 636"></path>
	<path id="Shape 14" class="shp0 QGpnOTwH_15" d="M1291 568C1290.59 568.86 1231 569 1231 569"></path>
	<path id="Shape 14" class="shp0 QGpnOTwH_16" d="M1405 634C1405.39 634.45 1470 514 1470 514"></path>
	<path id="Shape 14" class="shp0 QGpnOTwH_17" d="M1534 635C1534.9 635.38 1472 518 1472 518"></path>
	<path id="Shape 14" class="shp0 QGpnOTwH_18" d="M1503 596C1503.18 596.27 1435 598 1435 598"></path>
	<path id="Shape 14" class="shp0 QGpnOTwH_19" d="M1626 514L1627 635C1627 635 1759 649.29 1745 572C1731 494.71 1652.7 507.57 1626 514Z"></path>
	<path id="Shape 14" class="shp0 QGpnOTwH_20" d="M994 266C993.83 266.73 885.16 221.66 896 280C906.84 338.34 963.82 308.73 966 310C968.18 311.27 1051.43 326.95 964 380C876.57 433.05 884.71 359.67 885 360"></path>
	<path id="Shape 13" class="shp0 QGpnOTwH_21" d="M915 567L823 569"></path>
<style data-made-with="vivus-instant">.QGpnOTwH_0{stroke-dasharray:139 141;stroke-dashoffset:140;animation:QGpnOTwH_draw 1333ms linear 0ms forwards;}.QGpnOTwH_1{stroke-dasharray:432 434;stroke-dashoffset:433;animation:QGpnOTwH_draw 1333ms linear 31ms forwards;}.QGpnOTwH_2{stroke-dasharray:282 284;stroke-dashoffset:283;animation:QGpnOTwH_draw 1333ms linear 63ms forwards;}.QGpnOTwH_3{stroke-dasharray:129 131;stroke-dashoffset:130;animation:QGpnOTwH_draw 1333ms linear 95ms forwards;}.QGpnOTwH_4{stroke-dasharray:127 129;stroke-dashoffset:128;animation:QGpnOTwH_draw 1333ms linear 126ms forwards;}.QGpnOTwH_5{stroke-dasharray:649 651;stroke-dashoffset:650;animation:QGpnOTwH_draw 1333ms linear 158ms forwards;}.QGpnOTwH_6{stroke-dasharray:220 222;stroke-dashoffset:221;animation:QGpnOTwH_draw 1333ms linear 190ms forwards;}.QGpnOTwH_7{stroke-dasharray:3152 3154;stroke-dashoffset:3153;animation:QGpnOTwH_draw 1333ms linear 222ms forwards;}.QGpnOTwH_8{stroke-dasharray:122 124;stroke-dashoffset:123;animation:QGpnOTwH_draw 1333ms linear 253ms forwards;}.QGpnOTwH_9{stroke-dasharray:126 128;stroke-dashoffset:127;animation:QGpnOTwH_draw 1333ms linear 285ms forwards;}.QGpnOTwH_10{stroke-dasharray:0 2;stroke-dashoffset:1;animation:QGpnOTwH_draw 1333ms linear 317ms forwards;}.QGpnOTwH_11{stroke-dasharray:112 114;stroke-dashoffset:113;animation:QGpnOTwH_draw 1333ms linear 349ms forwards;}.QGpnOTwH_12{stroke-dasharray:360 362;stroke-dashoffset:361;animation:QGpnOTwH_draw 1333ms linear 380ms forwards;}.QGpnOTwH_13{stroke-dasharray:66 68;stroke-dashoffset:67;animation:QGpnOTwH_draw 1333ms linear 412ms forwards;}.QGpnOTwH_14{stroke-dasharray:327 329;stroke-dashoffset:328;animation:QGpnOTwH_draw 1333ms linear 444ms forwards;}.QGpnOTwH_15{stroke-dasharray:61 63;stroke-dashoffset:62;animation:QGpnOTwH_draw 1333ms linear 476ms forwards;}.QGpnOTwH_16{stroke-dasharray:137 139;stroke-dashoffset:138;animation:QGpnOTwH_draw 1333ms linear 507ms forwards;}.QGpnOTwH_17{stroke-dasharray:133 135;stroke-dashoffset:134;animation:QGpnOTwH_draw 1333ms linear 539ms forwards;}.QGpnOTwH_18{stroke-dasharray:69 71;stroke-dashoffset:70;animation:QGpnOTwH_draw 1333ms linear 571ms forwards;}.QGpnOTwH_19{stroke-dasharray:430 432;stroke-dashoffset:431;animation:QGpnOTwH_draw 1333ms linear 603ms forwards;}.QGpnOTwH_20{stroke-dasharray:433 435;stroke-dashoffset:434;animation:QGpnOTwH_draw 1333ms linear 634ms forwards;}.QGpnOTwH_21{stroke-dasharray:93 95;stroke-dashoffset:94;animation:QGpnOTwH_draw 1333ms linear 666ms forwards;}@keyframes QGpnOTwH_draw{100%{stroke-dashoffset:0;}}@keyframes QGpnOTwH_fade{0%{stroke-opacity:1;}93.54838709677419%{stroke-opacity:1;}100%{stroke-opacity:0;}}</style></svg>